<mxfile host="app.diagrams.net" agent="Mozilla/5.0 (Windows NT 10.0; Win64; x64) AppleWebKit/537.36 (KHTML, like Gecko) Chrome/136.0.0.0 Safari/537.36" version="24.7.14">
  <diagram name="Page-1" id="gwdl4e7UIieHP0_7ilsL">
    <mxGraphModel dx="2261" dy="772" grid="1" gridSize="10" guides="1" tooltips="1" connect="1" arrows="1" fold="1" page="1" pageScale="1" pageWidth="827" pageHeight="1169" math="0" shadow="0">
      <root>
        <mxCell id="0" />
        <mxCell id="1" parent="0" />
        <mxCell id="TChADUdk7M5G_QwABXUf-3" style="edgeStyle=orthogonalEdgeStyle;rounded=0;orthogonalLoop=1;jettySize=auto;html=1;exitX=0.5;exitY=1;exitDx=0;exitDy=0;entryX=0.5;entryY=0;entryDx=0;entryDy=0;" edge="1" parent="1" source="TChADUdk7M5G_QwABXUf-1" target="TChADUdk7M5G_QwABXUf-2">
          <mxGeometry relative="1" as="geometry" />
        </mxCell>
        <mxCell id="TChADUdk7M5G_QwABXUf-5" style="edgeStyle=orthogonalEdgeStyle;rounded=0;orthogonalLoop=1;jettySize=auto;html=1;exitX=0.5;exitY=1;exitDx=0;exitDy=0;entryX=0.5;entryY=0;entryDx=0;entryDy=0;" edge="1" parent="1" source="TChADUdk7M5G_QwABXUf-1" target="TChADUdk7M5G_QwABXUf-4">
          <mxGeometry relative="1" as="geometry" />
        </mxCell>
        <mxCell id="TChADUdk7M5G_QwABXUf-13" style="edgeStyle=orthogonalEdgeStyle;rounded=0;orthogonalLoop=1;jettySize=auto;html=1;exitX=0.5;exitY=1;exitDx=0;exitDy=0;entryX=0.5;entryY=0;entryDx=0;entryDy=0;" edge="1" parent="1" source="TChADUdk7M5G_QwABXUf-1" target="TChADUdk7M5G_QwABXUf-12">
          <mxGeometry relative="1" as="geometry" />
        </mxCell>
        <mxCell id="TChADUdk7M5G_QwABXUf-17" style="edgeStyle=orthogonalEdgeStyle;rounded=0;orthogonalLoop=1;jettySize=auto;html=1;exitX=0.5;exitY=1;exitDx=0;exitDy=0;entryX=0.5;entryY=0;entryDx=0;entryDy=0;" edge="1" parent="1" source="TChADUdk7M5G_QwABXUf-1" target="TChADUdk7M5G_QwABXUf-16">
          <mxGeometry relative="1" as="geometry" />
        </mxCell>
        <mxCell id="TChADUdk7M5G_QwABXUf-25" style="edgeStyle=orthogonalEdgeStyle;rounded=0;orthogonalLoop=1;jettySize=auto;html=1;exitX=0.5;exitY=1;exitDx=0;exitDy=0;entryX=0.5;entryY=0;entryDx=0;entryDy=0;" edge="1" parent="1" source="TChADUdk7M5G_QwABXUf-1" target="TChADUdk7M5G_QwABXUf-24">
          <mxGeometry relative="1" as="geometry" />
        </mxCell>
        <mxCell id="TChADUdk7M5G_QwABXUf-1" value="BOARD" style="rounded=0;whiteSpace=wrap;html=1;" vertex="1" parent="1">
          <mxGeometry x="354" y="110" width="120" height="60" as="geometry" />
        </mxCell>
        <mxCell id="TChADUdk7M5G_QwABXUf-8" style="edgeStyle=orthogonalEdgeStyle;rounded=0;orthogonalLoop=1;jettySize=auto;html=1;exitX=0.5;exitY=1;exitDx=0;exitDy=0;entryX=0.5;entryY=0;entryDx=0;entryDy=0;" edge="1" parent="1" source="TChADUdk7M5G_QwABXUf-2" target="TChADUdk7M5G_QwABXUf-7">
          <mxGeometry relative="1" as="geometry" />
        </mxCell>
        <mxCell id="TChADUdk7M5G_QwABXUf-9" style="edgeStyle=orthogonalEdgeStyle;rounded=0;orthogonalLoop=1;jettySize=auto;html=1;exitX=0.5;exitY=1;exitDx=0;exitDy=0;entryX=0.5;entryY=0;entryDx=0;entryDy=0;" edge="1" parent="1" source="TChADUdk7M5G_QwABXUf-2" target="TChADUdk7M5G_QwABXUf-6">
          <mxGeometry relative="1" as="geometry" />
        </mxCell>
        <mxCell id="TChADUdk7M5G_QwABXUf-2" value="DISPLAY BOARD TO USERS" style="rounded=0;whiteSpace=wrap;html=1;" vertex="1" parent="1">
          <mxGeometry x="354" y="220" width="120" height="60" as="geometry" />
        </mxCell>
        <mxCell id="TChADUdk7M5G_QwABXUf-11" style="edgeStyle=orthogonalEdgeStyle;rounded=0;orthogonalLoop=1;jettySize=auto;html=1;exitX=0.5;exitY=1;exitDx=0;exitDy=0;entryX=0.5;entryY=0;entryDx=0;entryDy=0;" edge="1" parent="1" source="TChADUdk7M5G_QwABXUf-4" target="TChADUdk7M5G_QwABXUf-10">
          <mxGeometry relative="1" as="geometry" />
        </mxCell>
        <mxCell id="TChADUdk7M5G_QwABXUf-4" value="STORE LOCATION OF EACH USER" style="rounded=0;whiteSpace=wrap;html=1;" vertex="1" parent="1">
          <mxGeometry x="600" y="220" width="120" height="60" as="geometry" />
        </mxCell>
        <mxCell id="TChADUdk7M5G_QwABXUf-6" value="DISPLAY THE 12 POSSIBLE SPACES AHEAD" style="rounded=0;whiteSpace=wrap;html=1;" vertex="1" parent="1">
          <mxGeometry x="414" y="330" width="120" height="60" as="geometry" />
        </mxCell>
        <mxCell id="TChADUdk7M5G_QwABXUf-7" value="DISPLAY HOW MANY SPACES AWAY FROM CERTAIN AREAS THEY ARE" style="rounded=0;whiteSpace=wrap;html=1;" vertex="1" parent="1">
          <mxGeometry x="294" y="330" width="120" height="70" as="geometry" />
        </mxCell>
        <mxCell id="TChADUdk7M5G_QwABXUf-10" value="STORE NUMBER OF PLAYERS + THEIR LOCATIONS" style="rounded=0;whiteSpace=wrap;html=1;" vertex="1" parent="1">
          <mxGeometry x="600" y="330" width="120" height="60" as="geometry" />
        </mxCell>
        <mxCell id="TChADUdk7M5G_QwABXUf-15" style="edgeStyle=orthogonalEdgeStyle;rounded=0;orthogonalLoop=1;jettySize=auto;html=1;exitX=0.5;exitY=1;exitDx=0;exitDy=0;" edge="1" parent="1" source="TChADUdk7M5G_QwABXUf-12" target="TChADUdk7M5G_QwABXUf-14">
          <mxGeometry relative="1" as="geometry" />
        </mxCell>
        <mxCell id="TChADUdk7M5G_QwABXUf-12" value="GIVE INSTRUCTIONS TO THE PLAYER WHEN THEY LAND ON SPACES" style="rounded=0;whiteSpace=wrap;html=1;" vertex="1" parent="1">
          <mxGeometry x="110" y="220" width="120" height="70" as="geometry" />
        </mxCell>
        <mxCell id="TChADUdk7M5G_QwABXUf-14" value="BUYING // PAYING THE OWNER // NOT BUYING" style="rounded=0;whiteSpace=wrap;html=1;" vertex="1" parent="1">
          <mxGeometry x="110" y="330" width="120" height="60" as="geometry" />
        </mxCell>
        <mxCell id="TChADUdk7M5G_QwABXUf-21" style="edgeStyle=orthogonalEdgeStyle;rounded=0;orthogonalLoop=1;jettySize=auto;html=1;exitX=0.5;exitY=1;exitDx=0;exitDy=0;entryX=0.5;entryY=0;entryDx=0;entryDy=0;" edge="1" parent="1" source="TChADUdk7M5G_QwABXUf-16" target="TChADUdk7M5G_QwABXUf-18">
          <mxGeometry relative="1" as="geometry" />
        </mxCell>
        <mxCell id="TChADUdk7M5G_QwABXUf-22" style="edgeStyle=orthogonalEdgeStyle;rounded=0;orthogonalLoop=1;jettySize=auto;html=1;exitX=0.5;exitY=1;exitDx=0;exitDy=0;entryX=0.5;entryY=0;entryDx=0;entryDy=0;" edge="1" parent="1" source="TChADUdk7M5G_QwABXUf-16" target="TChADUdk7M5G_QwABXUf-19">
          <mxGeometry relative="1" as="geometry" />
        </mxCell>
        <mxCell id="TChADUdk7M5G_QwABXUf-23" style="edgeStyle=orthogonalEdgeStyle;rounded=0;orthogonalLoop=1;jettySize=auto;html=1;exitX=0.5;exitY=1;exitDx=0;exitDy=0;" edge="1" parent="1" source="TChADUdk7M5G_QwABXUf-16" target="TChADUdk7M5G_QwABXUf-20">
          <mxGeometry relative="1" as="geometry" />
        </mxCell>
        <mxCell id="TChADUdk7M5G_QwABXUf-16" value="&quot;START&quot; SPACE" style="rounded=0;whiteSpace=wrap;html=1;" vertex="1" parent="1">
          <mxGeometry x="850" y="220" width="120" height="60" as="geometry" />
        </mxCell>
        <mxCell id="TChADUdk7M5G_QwABXUf-18" value="£500 ON PASS" style="rounded=0;whiteSpace=wrap;html=1;" vertex="1" parent="1">
          <mxGeometry x="790" y="330" width="120" height="60" as="geometry" />
        </mxCell>
        <mxCell id="TChADUdk7M5G_QwABXUf-19" value="£1000 ON LAND" style="rounded=0;whiteSpace=wrap;html=1;" vertex="1" parent="1">
          <mxGeometry x="910" y="330" width="120" height="60" as="geometry" />
        </mxCell>
        <mxCell id="TChADUdk7M5G_QwABXUf-20" value="START GAME ON THE SPACE" style="rounded=0;whiteSpace=wrap;html=1;" vertex="1" parent="1">
          <mxGeometry x="850" y="390" width="120" height="60" as="geometry" />
        </mxCell>
        <mxCell id="TChADUdk7M5G_QwABXUf-27" style="edgeStyle=orthogonalEdgeStyle;rounded=0;orthogonalLoop=1;jettySize=auto;html=1;exitX=0.5;exitY=1;exitDx=0;exitDy=0;entryX=0.5;entryY=0;entryDx=0;entryDy=0;" edge="1" parent="1" source="TChADUdk7M5G_QwABXUf-24" target="TChADUdk7M5G_QwABXUf-26">
          <mxGeometry relative="1" as="geometry" />
        </mxCell>
        <mxCell id="TChADUdk7M5G_QwABXUf-24" value="&quot;MISS A GO&quot; SPACE" style="rounded=0;whiteSpace=wrap;html=1;" vertex="1" parent="1">
          <mxGeometry x="-130" y="220" width="120" height="60" as="geometry" />
        </mxCell>
        <mxCell id="TChADUdk7M5G_QwABXUf-26" value="SKIP ONE GO FOR THAT PLAYER WHEN LANDED ON" style="rounded=0;whiteSpace=wrap;html=1;" vertex="1" parent="1">
          <mxGeometry x="-130" y="330" width="120" height="60" as="geometry" />
        </mxCell>
      </root>
    </mxGraphModel>
  </diagram>
</mxfile>
